<svg width="32" height="32" viewBox="0 0 32 32" fill="none" xmlns="http://www.w3.org/2000/svg">
<path fill-rule="evenodd" clip-rule="evenodd" d="M6 4.32355C4.89543 4.32355 4 5.21897 4 6.32355V26.3235C4 27.4281 4.89543 28.3235 6 28.3235H26C27.1045 28.3235 28 27.4281 28 26.3235V6.32355C28 5.21897 27.1045 4.32355 26 4.32355H6ZM11.361 9.66051C11.3685 10.9355 10.4141 11.7211 9.28164 11.7155C8.21476 11.7099 7.28476 10.8605 7.29039 9.66239C7.29601 8.53551 8.18664 7.62988 9.34352 7.65613C10.5173 7.68239 11.3685 8.54301 11.361 9.66051ZM16.3729 13.3392H13.0129H13.0111V24.7523H16.5623V24.4861C16.5623 23.9795 16.5619 23.4729 16.5615 22.9661C16.5604 21.6143 16.5592 20.2611 16.5661 18.9098C16.568 18.5817 16.5829 18.2405 16.6673 17.9273C16.9841 16.7573 18.0361 16.0017 19.2099 16.1874C19.9636 16.3054 20.4623 16.7423 20.6723 17.453C20.8017 17.8973 20.8599 18.3754 20.8655 18.8386C20.8807 20.2354 20.8785 21.6322 20.8764 23.0291C20.8756 23.5222 20.8748 24.0155 20.8748 24.5086V24.7505H24.4373V24.4767C24.4373 23.8741 24.4371 23.2715 24.4367 22.669C24.436 21.163 24.4352 19.657 24.4392 18.1505C24.4411 17.4698 24.368 16.7986 24.2011 16.1405C23.9517 15.1617 23.4361 14.3517 22.598 13.7667C22.0036 13.3505 21.3511 13.0823 20.6217 13.0523C20.5387 13.0489 20.4549 13.0444 20.3708 13.0398C19.9979 13.0197 19.6188 12.9992 19.2623 13.0711C18.2423 13.2755 17.3461 13.7423 16.6692 14.5654C16.5905 14.6598 16.5136 14.7557 16.3988 14.8987L16.3729 14.9311V13.3392ZM7.57552 24.7561H11.1099V13.3467H7.57552V24.7561Z" fill="black"/>
</svg>
