<svg width="32" height="33" viewBox="0 0 32 33" fill="none" xmlns="http://www.w3.org/2000/svg">
<path fill-rule="evenodd" clip-rule="evenodd" d="M27.64 9.99332L27.4533 9.65999C27.2125 9.25691 26.8729 8.9219 26.4667 8.68666L17.52 3.52666C17.1149 3.29166 16.6551 3.16748 16.1867 3.16666H15.8C15.3316 3.16748 14.8717 3.29166 14.4667 3.52666L5.52 8.69999C5.11596 8.93367 4.78035 9.26928 4.54667 9.67332L4.36 10.0067C4.125 10.4118 4.00083 10.8716 4 11.34V21.6733C4.00083 22.1417 4.125 22.6016 4.36 23.0067L4.54667 23.34C4.78639 23.7393 5.12065 24.0736 5.52 24.3133L14.48 29.4733C14.8831 29.7132 15.3443 29.8377 15.8133 29.8333H16.1867C16.6551 29.8325 17.1149 29.7084 17.52 29.4733L26.4667 24.3C26.8747 24.0716 27.2116 23.7347 27.44 23.3267L27.64 22.9933C27.8721 22.5871 27.9961 22.128 28 21.66V11.3267C27.9992 10.8583 27.8751 10.3984 27.64 9.99332ZM15.8 5.83332H16.1867L24 10.34L16 14.9533L8 10.34L15.8 5.83332ZM17.3333 26.5L25.1333 21.9933L25.3333 21.66V12.6467L17.3333 17.2733V26.5Z" fill="black"/>
</svg>
