<svg width="20" height="20" viewBox="0 0 20 20" fill="none" xmlns="http://www.w3.org/2000/svg">
<path d="M10.0001 11.6667C11.8384 11.6667 13.3334 10.1717 13.3334 8.33333C13.3334 6.495 11.8384 5 10.0001 5C8.16176 5 6.66676 6.495 6.66676 8.33333C6.66676 10.1717 8.16176 11.6667 10.0001 11.6667ZM10.0001 6.66666C10.9193 6.66666 11.6668 7.41416 11.6668 8.33333C11.6668 9.2525 10.9193 10 10.0001 10C9.08092 10 8.33342 9.2525 8.33342 8.33333C8.33342 7.41416 9.08092 6.66666 10.0001 6.66666Z" fill="black"/>
<path d="M9.51678 18.1783C9.65782 18.2791 9.8268 18.3332 10.0001 18.3332C10.1734 18.3332 10.3424 18.2791 10.4834 18.1783C10.7368 17.9992 16.6909 13.7 16.6668 8.33333C16.6668 4.6575 13.6759 1.66666 10.0001 1.66666C6.32428 1.66666 3.33345 4.6575 3.33345 8.32916C3.30928 13.7 9.26345 17.9992 9.51678 18.1783ZM10.0001 3.33333C12.7576 3.33333 15.0001 5.57583 15.0001 8.3375C15.0176 12.0358 11.3434 15.3567 10.0001 16.4458C8.65761 15.3558 4.98261 12.0342 5.00011 8.33333C5.00011 5.57583 7.24261 3.33333 10.0001 3.33333Z" fill="black"/>
<path fill-rule="evenodd" clip-rule="evenodd" d="M10.0001 3.33333C12.7576 3.33333 15.0001 5.57583 15.0001 8.3375C15.0176 12.0358 11.3434 15.3567 10.0001 16.4458C8.65761 15.3558 4.98261 12.0342 5.00011 8.33333C5.00011 5.57583 7.24261 3.33333 10.0001 3.33333ZM13.3334 8.33333C13.3334 10.1717 11.8384 11.6667 10.0001 11.6667C8.16176 11.6667 6.66676 10.1717 6.66676 8.33333C6.66676 6.495 8.16176 5 10.0001 5C11.8384 5 13.3334 6.495 13.3334 8.33333Z" fill="black"/>
</svg>
