<svg width="32" height="32" viewBox="0 0 32 32" fill="none" xmlns="http://www.w3.org/2000/svg">
<path d="M26.6666 5.33331H5.33329C3.86263 5.33331 2.66663 6.52931 2.66663 7.99998V24C2.66663 25.4706 3.86263 26.6666 5.33329 26.6666H26.6666C28.1373 26.6666 29.3333 25.4706 29.3333 24V7.99998C29.3333 6.52931 28.1373 5.33331 26.6666 5.33331ZM26.6666 7.99998V8.68131L16 16.9786L5.33329 8.68265V7.99998H26.6666ZM5.33329 24V12.0586L15.1813 19.7186C15.4148 19.902 15.7031 20.0017 16 20.0017C16.2969 20.0017 16.5851 19.902 16.8186 19.7186L26.6666 12.0586L26.6693 24H5.33329Z" fill="black"/>
</svg>
