<svg width="20" height="20" viewBox="0 0 20 20" fill="none" xmlns="http://www.w3.org/2000/svg">
<path d="M9.99997 11.6667C11.8383 11.6667 13.3333 10.1717 13.3333 8.33334C13.3333 6.49501 11.8383 5.00001 9.99997 5.00001C8.16164 5.00001 6.66664 6.49501 6.66664 8.33334C6.66664 10.1717 8.16164 11.6667 9.99997 11.6667ZM9.99997 6.66667C10.9191 6.66667 11.6666 7.41417 11.6666 8.33334C11.6666 9.25251 10.9191 10 9.99997 10C9.0808 10 8.3333 9.25251 8.3333 8.33334C8.3333 7.41417 9.0808 6.66667 9.99997 6.66667Z" fill="white"/>
<path d="M9.51666 18.1783C9.6577 18.2791 9.82668 18.3332 9.99999 18.3332C10.1733 18.3332 10.3423 18.2791 10.4833 18.1783C10.7367 17.9992 16.6908 13.7 16.6667 8.33334C16.6667 4.65751 13.6758 1.66667 9.99999 1.66667C6.32416 1.66667 3.33333 4.65751 3.33333 8.32917C3.30916 13.7 9.26333 17.9992 9.51666 18.1783ZM9.99999 3.33334C12.7575 3.33334 15 5.57584 15 8.33751C15.0175 12.0358 11.3433 15.3567 9.99999 16.4458C8.65749 15.3558 4.98249 12.0342 4.99999 8.33334C4.99999 5.57584 7.24249 3.33334 9.99999 3.33334Z" fill="white"/>
<path fill-rule="evenodd" clip-rule="evenodd" d="M9.99999 3.33334C12.7575 3.33334 15 5.57584 15 8.33751C15.0175 12.0358 11.3433 15.3567 9.99999 16.4458C8.65749 15.3558 4.98249 12.0342 4.99999 8.33334C4.99999 5.57584 7.24249 3.33334 9.99999 3.33334ZM13.3333 8.33334C13.3333 10.1717 11.8383 11.6667 9.99997 11.6667C8.16164 11.6667 6.66664 10.1717 6.66664 8.33334C6.66664 6.49501 8.16164 5.00001 9.99997 5.00001C11.8383 5.00001 13.3333 6.49501 13.3333 8.33334Z" fill="white"/>
</svg>
