<svg width="32" height="32" viewBox="0 0 32 32" fill="none" xmlns="http://www.w3.org/2000/svg">
<path d="M28.7906 9.60403C28.6388 9.04057 28.342 8.5267 27.9298 8.11359C27.5176 7.70047 27.0044 7.40251 26.4413 7.24936C24.3533 6.67603 16 6.6667 16 6.6667C16 6.6667 7.64795 6.65736 5.55862 7.20536C4.99585 7.36556 4.48371 7.66773 4.07137 8.08288C3.65903 8.49802 3.36033 9.01219 3.20395 9.57603C2.65328 11.664 2.64795 15.9947 2.64795 15.9947C2.64795 15.9947 2.64262 20.3467 3.18928 22.4134C3.49595 23.556 4.39595 24.4587 5.53995 24.7667C7.64929 25.34 15.98 25.3494 15.98 25.3494C15.98 25.3494 24.3333 25.3587 26.4213 24.812C26.9846 24.6592 27.4983 24.3619 27.9115 23.9496C28.3247 23.5373 28.6231 23.0243 28.7773 22.4614C29.3293 20.3747 29.3333 16.0454 29.3333 16.0454C29.3333 16.0454 29.36 11.692 28.7906 9.60403ZM13.328 20.0067L13.3346 12.0067L20.2773 16.0134L13.328 20.0067Z" fill="white"/>
</svg>
