<svg width="140" height="56" viewBox="0 0 140 56" fill="none" xmlns="http://www.w3.org/2000/svg">
<path fill-rule="evenodd" clip-rule="evenodd" d="M38.5729 16.7499L27.0634 39.2499H16.2527L21.0694 29.9249H20.8533C16.8796 35.0834 10.9506 38.4793 2.50269 39.2499V30.054C2.50269 30.054 7.907 29.7348 11.084 26.3946H2.50269V16.7501H12.1472V24.6825L12.3637 24.6816L16.3048 16.7501H23.5987V24.6322L23.8151 24.6319L27.9041 16.7499H38.5729Z" fill="black"/>
<path d="M101.336 36.7664H104.442V18.9374H101.336V36.7664Z" fill="black"/>
<path fill-rule="evenodd" clip-rule="evenodd" d="M84.2119 36.5843C84.8869 36.8649 85.5734 37.0053 86.2712 37.0053C87.4241 37.0053 88.4557 36.7247 89.366 36.1633C90.2761 35.6021 90.9816 34.8284 91.4822 33.8423C91.9829 32.8487 92.2331 31.7222 92.2331 30.4631C92.2331 29.2039 91.9753 28.0776 91.4595 27.0839C90.9436 26.0903 90.2269 25.3204 89.309 24.7742C88.3913 24.2205 87.3482 23.9475 86.1801 23.955C85.4369 23.955 84.7239 24.0992 84.0411 24.3874C83.3585 24.6756 82.7896 25.0852 82.3345 25.6162C82.2994 25.6566 82.2653 25.6974 82.2321 25.7387V18.9488H79.1146V36.7664H82.2094L82.2031 35.1019C82.2831 35.2001 82.3688 35.2959 82.4596 35.3897C82.9526 35.8979 83.5368 36.2961 84.2119 36.5843ZM87.3976 33.7058C86.8894 34.0168 86.3091 34.1723 85.6567 34.1723C85.012 34.1723 84.4204 34.0129 83.8819 33.6944C83.3432 33.3682 82.9147 32.9246 82.5961 32.3632C82.2851 31.8019 82.1296 31.1647 82.1296 30.4517C82.1221 29.7387 82.2738 29.1016 82.5848 28.5403C82.9034 27.9714 83.3319 27.5314 83.8705 27.2205C84.409 26.9019 85.0045 26.7464 85.6567 26.754C86.3091 26.7464 86.8894 26.8981 87.3976 27.2091C87.9134 27.5125 88.3078 27.9486 88.5809 28.5175C88.8615 29.0788 89.0019 29.7236 89.0019 30.4517C89.0019 31.1799 88.8615 31.8247 88.5809 32.3859C88.3078 32.9473 87.9134 33.3872 87.3976 33.7058Z" fill="black"/>
<path d="M43.0728 20.0183H46.6226L49.7981 31.6153L53.1763 20.0183H56.1345L59.7981 31.3825L62.8474 20.0183H66.1014L61.3 36.7664H58.2394L54.5139 25.6644L51.0941 36.7664H47.9994L43.0728 20.0183Z" fill="black"/>
<path fill-rule="evenodd" clip-rule="evenodd" d="M71.344 37.0621C70.1075 37.0698 68.9925 36.7966 67.9988 36.243C67.0127 35.6816 66.2353 34.9041 65.6663 33.9105C65.1051 32.9169 64.8245 31.7829 64.8245 30.5085C64.8245 29.2721 65.1127 28.1534 65.6892 27.1521C66.2656 26.1509 67.0468 25.3696 68.033 24.8083C69.0191 24.247 70.1188 23.9664 71.3325 23.9664C72.6978 23.9664 73.8925 24.2698 74.9165 24.8766C75.9481 25.4834 76.718 26.3443 77.2262 27.4593C77.742 28.5668 77.9278 29.8373 77.7837 31.2709H68.0378C68.0651 31.842 68.2076 32.3616 68.4653 32.8296C68.7536 33.3454 69.1556 33.7474 69.6713 34.0356C70.1872 34.3239 70.7636 34.468 71.4008 34.468C71.8862 34.4604 72.3376 34.377 72.7547 34.2178C73.172 34.0509 73.5246 33.8271 73.8128 33.5464C74.1087 33.2658 74.3173 32.9473 74.4387 32.5908H77.6927C77.4955 33.463 77.1011 34.2405 76.5095 34.9231C75.9177 35.5983 75.1745 36.1254 74.2793 36.5046C73.3843 36.8839 72.4058 37.0698 71.344 37.0621ZM68.4767 28.142C68.295 28.459 68.169 28.8003 68.0988 29.166H74.5592C74.5123 28.704 74.3697 28.283 74.1315 27.9031C73.8583 27.4555 73.4867 27.1104 73.0165 26.8677C72.5462 26.6174 72.0152 26.4922 71.4236 26.4922C70.794 26.4922 70.2213 26.6363 69.7055 26.9246C69.1897 27.2128 68.7801 27.6186 68.4767 28.142Z" fill="black"/>
<path d="M94.5204 24.2281C94.5204 23.2117 94.7517 22.309 95.2144 21.5202C95.6771 20.7237 96.3257 20.1055 97.1601 19.6656C98.0019 19.2181 98.9843 18.9867 100.107 18.9716V21.7363C99.5834 21.7439 99.1359 21.8539 98.7643 22.0663C98.4002 22.2711 98.1196 22.5707 97.9223 22.9651C97.7408 23.3283 97.6428 23.7492 97.6284 24.2281H100.039V26.8563H97.6266V36.7664H94.5204V26.8563H92.5179V24.2281H94.5204Z" fill="black"/>
<path fill-rule="evenodd" clip-rule="evenodd" d="M112.338 37.0393C111.071 37.0393 109.937 36.7625 108.936 36.2088C107.942 35.6475 107.161 34.8738 106.592 33.8877C106.03 32.8941 105.75 31.7677 105.75 30.5085C105.75 29.2418 106.03 28.1116 106.592 27.118C107.161 26.1167 107.942 25.3392 108.936 24.7855C109.937 24.2318 111.071 23.9549 112.338 23.9549C113.612 23.9549 114.75 24.2318 115.751 24.7855C116.76 25.3392 117.545 26.1129 118.106 27.1066C118.667 28.1002 118.952 29.2342 118.959 30.5085C118.952 31.7677 118.667 32.8941 118.106 33.8877C117.552 34.8738 116.771 35.6475 115.762 36.2088C114.753 36.7625 113.612 37.0393 112.338 37.0393ZM112.338 34.1836C113.005 34.1836 113.597 34.0318 114.112 33.7285C114.628 33.4175 115.026 32.9851 115.307 32.4313C115.588 31.8701 115.728 31.2291 115.728 30.5085C115.728 29.7803 115.588 29.1356 115.307 28.5743C115.026 28.013 114.628 27.5807 114.112 27.2772C113.597 26.9663 113.005 26.8108 112.338 26.8108C111.678 26.8108 111.09 26.9663 110.574 27.2772C110.066 27.5807 109.671 28.013 109.391 28.5743C109.11 29.1356 108.974 29.7803 108.981 30.5085C108.981 31.2291 109.121 31.8701 109.402 32.4313C109.69 32.9851 110.085 33.4175 110.585 33.7285C111.094 34.0318 111.678 34.1836 112.338 34.1836Z" fill="black"/>
<path d="M122.316 24.2281H118.857L122.6 36.7664H125.627L128.089 28.7581L130.746 36.7664H133.728L137.483 24.2281H134.354L132.224 32.0324L129.87 24.2281H126.844L124.502 32.2043L122.316 24.2281Z" fill="black"/>
</svg>
