<svg width="141" height="56" viewBox="0 0 141 56" fill="none" xmlns="http://www.w3.org/2000/svg">
<path fill-rule="evenodd" clip-rule="evenodd" d="M39.2365 16.7499L27.727 39.2499H16.9163L21.733 29.9249H21.5169C17.5431 35.0834 11.6141 38.4793 3.16626 39.2499V30.054C3.16626 30.054 8.57057 29.7348 11.7476 26.3946H3.16626V16.7501H12.8108V24.6825L13.0272 24.6816L16.9684 16.7501H24.2623V24.6322L24.4786 24.6319L28.5676 16.7499H39.2365Z" fill="black"/>
<path d="M101.999 36.7664H105.105V18.9374H101.999V36.7664Z" fill="black"/>
<path fill-rule="evenodd" clip-rule="evenodd" d="M84.8755 36.5843C85.5505 36.8649 86.2369 37.0053 86.9348 37.0053C88.0877 37.0053 89.1193 36.7247 90.0296 36.1633C90.9397 35.6021 91.6452 34.8284 92.1458 33.8423C92.6464 32.8487 92.8967 31.7222 92.8967 30.4631C92.8967 29.2039 92.6388 28.0776 92.1231 27.0839C91.6072 26.0903 90.8904 25.3204 89.9726 24.7742C89.0548 24.2205 88.0118 23.9475 86.8437 23.955C86.1004 23.955 85.3875 24.0992 84.7047 24.3874C84.0221 24.6756 83.4532 25.0852 82.9981 25.6162C82.963 25.6566 82.9288 25.6974 82.8957 25.7387V18.9488H79.7782V36.7664H82.8729L82.8667 35.1019C82.9467 35.2001 83.0323 35.2959 83.1232 35.3897C83.6162 35.8979 84.2003 36.2961 84.8755 36.5843ZM88.0612 33.7058C87.5529 34.0168 86.9727 34.1723 86.3203 34.1723C85.6756 34.1723 85.0839 34.0129 84.5454 33.6944C84.0068 33.3682 83.5783 32.9246 83.2597 32.3632C82.9487 31.8019 82.7932 31.1647 82.7932 30.4517C82.7857 29.7387 82.9373 29.1016 83.2483 28.5403C83.567 27.9714 83.9954 27.5314 84.5341 27.2205C85.0726 26.9019 85.6681 26.7464 86.3203 26.754C86.9727 26.7464 87.5529 26.8981 88.0612 27.2091C88.5769 27.5125 88.9713 27.9486 89.2445 28.5175C89.5251 29.0788 89.6655 29.7236 89.6655 30.4517C89.6655 31.1799 89.5251 31.8247 89.2445 32.3859C88.9713 32.9473 88.5769 33.3872 88.0612 33.7058Z" fill="black"/>
<path d="M43.7363 20.0183H47.2862L50.4617 31.6153L53.8398 20.0183H56.7981L60.4617 31.3825L63.511 20.0183H66.765L61.9636 36.7664H58.903L55.1775 25.6644L51.7577 36.7664H48.663L43.7363 20.0183Z" fill="black"/>
<path fill-rule="evenodd" clip-rule="evenodd" d="M72.0075 37.0621C70.771 37.0698 69.656 36.7966 68.6624 36.243C67.6763 35.6816 66.8989 34.9041 66.3299 33.9105C65.7687 32.9169 65.488 31.7829 65.488 30.5085C65.488 29.2721 65.7763 28.1534 66.3528 27.1521C66.9292 26.1509 67.7104 25.3696 68.6965 24.8083C69.6827 24.247 70.7824 23.9664 71.996 23.9664C73.3614 23.9664 74.556 24.2698 75.58 24.8766C76.6117 25.4834 77.3815 26.3443 77.8898 27.4593C78.4055 28.5668 78.5914 29.8373 78.4473 31.2709H68.7014C68.7287 31.842 68.8712 32.3616 69.1289 32.8296C69.4172 33.3454 69.8192 33.7474 70.3349 34.0356C70.8508 34.3239 71.4272 34.468 72.0644 34.468C72.5498 34.4604 73.0012 34.377 73.4183 34.2178C73.8355 34.0509 74.1882 33.8271 74.4764 33.5464C74.7723 33.2658 74.9809 32.9473 75.1023 32.5908H78.3563C78.159 33.463 77.7647 34.2405 77.173 34.9231C76.5813 35.5983 75.838 36.1254 74.9429 36.5046C74.0479 36.8839 73.0694 37.0698 72.0075 37.0621ZM69.1403 28.142C68.9585 28.459 68.8325 28.8003 68.7624 29.166H75.2228C75.1759 28.704 75.0333 28.283 74.795 27.9031C74.5219 27.4555 74.1503 27.1104 73.68 26.8677C73.2098 26.6174 72.6788 26.4922 72.0872 26.4922C71.4575 26.4922 70.8849 26.6363 70.369 26.9246C69.8533 27.2128 69.4437 27.6186 69.1403 28.142Z" fill="black"/>
<path d="M95.184 24.2281C95.184 23.2117 95.4153 22.309 95.878 21.5202C96.3406 20.7237 96.9893 20.1055 97.8236 19.6656C98.6655 19.2181 99.6479 18.9867 100.77 18.9716V21.7363C100.247 21.7439 99.7995 21.8539 99.4279 22.0663C99.0638 22.2711 98.7831 22.5707 98.5859 22.9651C98.4044 23.3283 98.3064 23.7492 98.292 24.2281H100.702V26.8563H98.2901V36.7664H95.184V26.8563H93.1815V24.2281H95.184Z" fill="black"/>
<path fill-rule="evenodd" clip-rule="evenodd" d="M113.001 37.0393C111.734 37.0393 110.6 36.7625 109.599 36.2088C108.605 35.6475 107.824 34.8738 107.255 33.8877C106.694 32.8941 106.413 31.7677 106.413 30.5085C106.413 29.2418 106.694 28.1116 107.255 27.118C107.824 26.1167 108.605 25.3392 109.599 24.7855C110.6 24.2318 111.734 23.9549 113.001 23.9549C114.275 23.9549 115.413 24.2318 116.414 24.7855C117.423 25.3392 118.208 26.1129 118.77 27.1066C119.331 28.1002 119.615 29.2342 119.623 30.5085C119.615 31.7677 119.331 32.8941 118.77 33.8877C118.216 34.8738 117.435 35.6475 116.426 36.2088C115.417 36.7625 114.275 37.0393 113.001 37.0393ZM113.001 34.1836C113.669 34.1836 114.26 34.0318 114.776 33.7285C115.292 33.4175 115.69 32.9851 115.971 32.4313C116.251 31.8701 116.392 31.2291 116.392 30.5085C116.392 29.7803 116.251 29.1356 115.971 28.5743C115.69 28.013 115.292 27.5807 114.776 27.2772C114.26 26.9663 113.669 26.8108 113.001 26.8108C112.341 26.8108 111.753 26.9663 111.237 27.2772C110.729 27.5807 110.335 28.013 110.054 28.5743C109.774 29.1356 109.637 29.7803 109.645 30.5085C109.645 31.2291 109.785 31.8701 110.066 32.4313C110.354 32.9851 110.748 33.4175 111.249 33.7285C111.757 34.0318 112.341 34.1836 113.001 34.1836Z" fill="black"/>
<path d="M122.979 24.2281H119.521L123.264 36.7664H126.29L128.752 28.7581L131.41 36.7664H134.391L138.146 24.2281H135.017L132.887 32.0324L130.534 24.2281H127.508L125.166 32.2043L122.979 24.2281Z" fill="black"/>
</svg>
