<svg width="140" height="56" viewBox="0 0 140 56" fill="none" xmlns="http://www.w3.org/2000/svg">
<path fill-rule="evenodd" clip-rule="evenodd" d="M35.5544 19.2355L35.8055 19.684C36.1218 20.2289 36.2888 20.8476 36.2899 21.4776V35.3791C36.2847 36.0086 36.1179 36.6262 35.8055 37.1728L35.5365 37.6213C35.2293 38.1703 34.776 38.6234 34.2271 38.9307L22.1911 45.8903C21.6461 46.2065 21.0275 46.3735 20.3974 46.3747H19.8951C19.2642 46.3806 18.6437 46.213 18.1014 45.8903L6.04754 38.9487C5.51029 38.6261 5.06061 38.1765 4.73812 37.6392L4.487 37.1908C4.17084 36.6457 4.00381 36.0271 4.00269 35.397V21.4955C4.00381 20.8656 4.17084 20.2468 4.487 19.7019L4.73812 19.2535C5.05248 18.7099 5.50399 18.2583 6.04754 17.944L18.0835 10.9843C18.6285 10.6682 19.2471 10.5011 19.8772 10.5H20.3974C21.0275 10.5011 21.6461 10.6682 22.1911 10.9843L34.2271 17.9261C34.7737 18.2425 35.2306 18.6932 35.5544 19.2355ZM20.3974 14.0874H19.8772L9.38391 20.1502L20.1463 26.3565L30.9087 20.1502L20.3974 14.0874ZM32.4333 35.8276L21.94 41.8905V29.4778L32.7024 23.2536V35.3792L32.4333 35.8276ZM83.066 37.0475H79.3464V17.4169H83.066V37.0475ZM49.5027 37.4683H53.6613V30.3392H55.4694L59.8863 37.4683H64.329L59.4472 29.6161C61.6169 28.9703 63.2441 27.498 63.2441 24.7084V24.605C63.2441 20.7823 60.4804 19 56.1151 19H49.5027V37.4683ZM53.6613 27.498V22.2029H56.0118C58.0265 22.2029 59.1631 22.8487 59.1631 24.7342V24.8375C59.1631 26.6198 58.1041 27.498 56.0118 27.498H53.6613ZM71.0833 37.3309C74.7769 37.3309 77.1016 35.7037 77.5406 32.7849H74.002C73.7695 33.9214 72.9172 34.6705 71.1866 34.6705C69.146 34.6705 67.9321 33.379 67.8287 31.1318H77.5665V30.0986C77.5665 25.2684 74.467 23.2279 70.9799 23.2279C67.0538 23.2279 64.0317 25.9917 64.0317 30.2536V30.4602C64.0317 34.7738 67.0021 37.3309 71.0833 37.3309ZM67.8803 28.833C68.1645 26.9215 69.301 25.8109 70.9799 25.8109C72.7622 25.8109 73.7954 26.7924 73.9246 28.833H67.8803ZM90.2012 37.332C92.4228 37.332 93.7913 36.2988 94.4886 34.9299V37.0479H98.2082V23.5389H94.4886V31.4687C94.4886 33.4576 93.2488 34.4391 91.6738 34.4391C90.0725 34.4391 89.3227 33.5609 89.3227 31.727V23.5389H85.6036V32.2436C85.6036 35.7822 87.5665 37.332 90.2012 37.332ZM104.493 37.0468H100.747V23.5378H104.493V25.6042C105.164 24.3385 106.611 23.2279 108.626 23.2279C110.408 23.2279 111.751 23.977 112.397 25.5784C113.482 23.9511 115.238 23.2279 116.943 23.2279C119.449 23.2279 121.386 24.8035 121.386 28.3939V37.0468H117.666V28.8071C117.666 27.0765 116.891 26.3016 115.548 26.3016C114.102 26.3016 112.94 27.2315 112.94 29.0654V37.0468H109.22V28.8071C109.22 27.0765 108.419 26.3016 107.102 26.3016C105.655 26.3016 104.493 27.2315 104.493 29.0654V37.0468ZM130.034 37.3309C133.728 37.3309 136.053 35.7037 136.492 32.7849H132.953C132.72 33.9214 131.868 34.6705 130.137 34.6705C128.097 34.6705 126.883 33.379 126.78 31.1318H136.518V30.0986C136.518 25.2684 133.418 23.2279 129.931 23.2279C126.005 23.2279 122.983 25.9917 122.983 30.2536V30.4602C122.983 34.7738 125.953 37.3309 130.034 37.3309ZM126.832 28.833C127.116 26.9215 128.253 25.8109 129.931 25.8109C131.713 25.8109 132.747 26.7924 132.876 28.833H126.832Z" fill="black"/>
</svg>
