<svg width="20" height="19" viewBox="0 0 20 19" fill="none" xmlns="http://www.w3.org/2000/svg">
<path d="M9.07088 0.667885C9.41462 -0.148573 10.5854 -0.148572 10.9291 0.667888L12.9579 5.48678C13.1029 5.83098 13.4306 6.06615 13.8067 6.09594L19.0727 6.51302C19.9649 6.58369 20.3267 7.68368 19.6469 8.25894L15.6348 11.6542C15.3482 11.8968 15.223 12.2773 15.3106 12.6399L16.5363 17.7165C16.744 18.5767 15.7969 19.2565 15.033 18.7957L10.5245 16.0751C10.2025 15.8808 9.7975 15.8808 9.47548 16.0751L4.96699 18.7957C4.20311 19.2565 3.25596 18.5767 3.46363 17.7165L4.68942 12.6399C4.77698 12.2773 4.65182 11.8968 4.36526 11.6542L0.353062 8.25894C-0.326718 7.68368 0.0350679 6.58369 0.927291 6.51302L6.19336 6.09594C6.5695 6.06615 6.89716 5.83098 7.04207 5.48678L9.07088 0.667885Z" fill="black"/>
</svg>
